<svg width="39" height="38" viewBox="0 0 39 38" fill="none" xmlns="http://www.w3.org/2000/svg">
<path d="M19.2369 4.87354C28.371 4.87354 35.7755 10.6447 35.7755 17.7658C35.7755 24.8853 28.371 30.6565 19.2369 30.6565C18.3274 30.657 17.4188 30.5991 16.5167 30.4832L9.5736 35.0243C8.78447 35.4417 8.50567 35.396 8.83014 34.3738L10.2351 28.5805C5.69883 26.2809 2.69824 22.2958 2.69824 17.7658C2.69824 10.6463 10.1028 4.87354 19.2369 4.87354ZM28.5411 17.5689L30.8565 15.326C30.9901 15.1872 31.0646 15.002 31.0644 14.8094C31.0641 14.6168 30.9892 14.4318 30.8552 14.2933C30.7213 14.1549 30.5389 14.0739 30.3463 14.0673C30.1538 14.0607 29.9663 14.1291 29.8232 14.258L26.7864 17.1972V14.7684C26.7864 14.5712 26.7081 14.3821 26.5686 14.2427C26.4292 14.1033 26.2401 14.0249 26.0429 14.0249C25.8458 14.0249 25.6567 14.1033 25.5172 14.2427C25.3778 14.3821 25.2995 14.5712 25.2995 14.7684V18.7959C25.2716 18.9108 25.2716 19.0307 25.2995 19.1456V21.4122C25.2995 21.6094 25.3778 21.7985 25.5172 21.9379C25.6567 22.0773 25.8458 22.1556 26.0429 22.1556C26.2401 22.1556 26.4292 22.0773 26.5686 21.9379C26.7081 21.7985 26.7864 21.6094 26.7864 21.4122V19.2653L27.459 18.6148L29.7082 21.817C29.7644 21.8969 29.8357 21.965 29.9182 22.0174C30.0007 22.0698 30.0927 22.1054 30.1889 22.1222C30.2852 22.139 30.3838 22.1367 30.4791 22.1154C30.5745 22.0941 30.6647 22.0543 30.7446 21.9981C30.8246 21.942 30.8927 21.8706 30.9451 21.7881C30.9974 21.7057 31.033 21.6137 31.0499 21.5174C31.0667 21.4212 31.0644 21.3226 31.0431 21.2272C31.0218 21.1319 30.9819 21.0417 30.9258 20.9617L28.5411 17.5673V17.5689ZM23.8819 20.5994H21.5822V14.792C21.5734 14.601 21.4913 14.4206 21.353 14.2886C21.2147 14.1565 21.0308 14.0828 20.8396 14.0828C20.6483 14.0828 20.4644 14.1565 20.3261 14.2886C20.1878 14.4206 20.1057 14.601 20.0969 14.792V21.3429C20.0969 21.7524 20.4277 22.0863 20.8388 22.0863H23.8819C24.0791 22.0863 24.2682 22.008 24.4076 21.8686C24.547 21.7292 24.6253 21.5401 24.6253 21.3429C24.6253 21.1457 24.547 20.9566 24.4076 20.8172C24.2682 20.6778 24.0791 20.5994 23.8819 20.5994ZM14.6565 18.8794L15.7528 16.1907L16.7577 18.8794H14.6565ZM18.6305 19.6481L18.6336 19.6229C18.6333 19.4356 18.5618 19.2554 18.4336 19.1188L16.786 14.7085C16.717 14.4984 16.5854 14.3143 16.4089 14.1808C16.2325 14.0474 16.0195 13.9711 15.7984 13.9619C15.5758 13.9609 15.3581 14.0278 15.1744 14.1536C14.9906 14.2793 14.8495 14.4581 14.7699 14.666L12.1536 21.0846C12.1167 21.175 12.0979 21.2717 12.0984 21.3694C12.0989 21.467 12.1186 21.5636 12.1564 21.6536C12.1942 21.7437 12.2494 21.8253 12.3188 21.8941C12.3882 21.9628 12.4704 22.0171 12.5608 22.054C12.6512 22.091 12.748 22.1097 12.8456 22.1092C12.9432 22.1088 13.0398 22.0891 13.1299 22.0512C13.2199 22.0134 13.3016 21.9583 13.3703 21.8889C13.439 21.8195 13.4933 21.7373 13.5303 21.6469L14.0501 20.3663H17.3105L17.7815 21.6264C17.8135 21.7206 17.8641 21.8074 17.9303 21.8817C17.9965 21.956 18.0769 22.0162 18.1668 22.0588C18.2566 22.1015 18.3542 22.1256 18.4536 22.1299C18.553 22.1341 18.6522 22.1184 18.7454 22.0836C18.8386 22.0488 18.9239 21.9957 18.9961 21.9273C19.0684 21.859 19.1263 21.7768 19.1662 21.6857C19.2062 21.5946 19.2275 21.4964 19.2288 21.3969C19.2301 21.2975 19.2114 21.1987 19.1739 21.1066L18.6305 19.6481ZM13.398 14.7999C13.398 14.603 13.3199 14.4141 13.1808 14.2747C13.0417 14.1354 12.853 14.0568 12.6561 14.0564H7.54485C7.34768 14.0564 7.15858 14.1348 7.01915 14.2742C6.87973 14.4136 6.8014 14.6027 6.8014 14.7999C6.8014 14.9971 6.87973 15.1862 7.01915 15.3256C7.15858 15.465 7.34768 15.5433 7.54485 15.5433H9.37198V21.4279C9.37198 21.6251 9.45031 21.8142 9.58973 21.9536C9.72916 22.0931 9.91826 22.1714 10.1154 22.1714C10.3126 22.1714 10.5017 22.0931 10.6411 21.9536C10.7806 21.8142 10.8589 21.6251 10.8589 21.4279V15.5433H12.6545C12.8517 15.5433 13.0408 15.465 13.1802 15.3256C13.3196 15.1862 13.398 14.9971 13.398 14.7999Z" fill="#877458"/>
</svg>
