<svg width="40" height="39" viewBox="0 0 40 39" fill="none" xmlns="http://www.w3.org/2000/svg">
<path d="M17.8016 21.8124C18.464 22.4425 18.464 23.4764 17.8016 24.1064C17.1716 24.7365 16.1377 24.7365 15.5076 24.1064C13.9945 22.591 13.1447 20.5371 13.1447 18.3956C13.1447 16.2542 13.9945 14.2002 15.5076 12.6849L21.2265 6.966C22.7419 5.45289 24.7958 4.60303 26.9373 4.60303C29.0787 4.60303 31.1327 5.45289 32.6481 6.966C34.1612 8.48138 35.011 10.5353 35.011 12.6768C35.011 14.8182 34.1612 16.8722 32.6481 18.3876L30.241 20.7947C30.2571 19.4699 30.0471 18.1452 29.5948 16.8852L30.3541 16.1097C30.8069 15.6617 31.1665 15.1283 31.4118 14.5405C31.6572 13.9526 31.7836 13.3219 31.7836 12.6849C31.7836 12.0478 31.6572 11.4171 31.4118 10.8293C31.1665 10.2414 30.8069 9.708 30.3541 9.26001C29.9061 8.80712 29.3727 8.44759 28.7848 8.20221C28.1969 7.95684 27.5662 7.83049 26.9292 7.83049C26.2922 7.83049 25.6615 7.95684 25.0736 8.20221C24.4857 8.44759 23.9523 8.80712 23.5043 9.26001L17.8016 14.9627C17.3488 15.4107 16.9892 15.9441 16.7438 16.532C16.4985 17.1198 16.3721 17.7505 16.3721 18.3876C16.3721 19.0246 16.4985 19.6553 16.7438 20.2432C16.9892 20.8311 17.3488 21.3644 17.8016 21.8124ZM22.3573 14.9627C22.9874 14.3327 24.0213 14.3327 24.6513 14.9627C26.1645 16.4781 27.0143 18.532 27.0143 20.6735C27.0143 22.815 26.1645 24.8689 24.6513 26.3843L18.9325 32.1031C17.4171 33.6162 15.3632 34.4661 13.2217 34.4661C11.0802 34.4661 9.0263 33.6162 7.51092 32.1031C5.99781 30.5878 5.14795 28.5338 5.14795 26.3924C5.14795 24.2509 5.99781 22.197 7.51092 20.6816L9.91801 18.2745C9.90186 19.5992 10.1119 20.9239 10.5642 22.2001L9.80493 22.9594C9.35204 23.4074 8.99251 23.9408 8.74713 24.5287C8.50176 25.1165 8.37541 25.7472 8.37541 26.3843C8.37541 27.0213 8.50176 27.652 8.74713 28.2399C8.99251 28.8278 9.35204 29.3611 9.80493 29.8091C10.2529 30.262 10.7863 30.6215 11.3742 30.8669C11.962 31.1123 12.5928 31.2386 13.2298 31.2386C13.8668 31.2386 14.4975 31.1123 15.0854 30.8669C15.6733 30.6215 16.2066 30.262 16.6546 29.8091L22.3573 24.1064C22.8102 23.6584 23.1698 23.1251 23.4151 22.5372C23.6605 21.9493 23.7869 21.3186 23.7869 20.6816C23.7869 20.0445 23.6605 19.4138 23.4151 18.826C23.1698 18.2381 22.8102 17.7047 22.3573 17.2567C22.2004 17.1097 22.0754 16.932 21.9899 16.7348C21.9044 16.5375 21.8603 16.3247 21.8603 16.1097C21.8603 15.8947 21.9044 15.682 21.9899 15.4847C22.0754 15.2874 22.2004 15.1097 22.3573 14.9627Z" fill="#877458"/>
</svg>
