<svg width="37" height="37" viewBox="0 0 37 37" fill="none" xmlns="http://www.w3.org/2000/svg">
<path d="M27.9411 10.6641L26.8363 9.55217C25.6896 8.38825 24.3162 7.4627 22.7978 6.8306C21.2794 6.1985 19.647 5.87277 17.9978 5.87277C16.3486 5.87277 14.7163 6.1985 13.1979 6.8306C11.6795 7.4627 10.3061 8.38825 9.15936 9.55217C4.28021 14.4588 4.28021 22.414 9.15936 27.3206C10.3061 28.4845 11.6795 29.4101 13.1979 30.0422C14.7163 30.6743 16.3486 31 17.9978 31C19.647 31 21.2794 30.6743 22.7978 30.0422C24.3162 29.4101 25.6896 28.4845 26.8363 27.3206C28.1908 25.9523 29.2143 24.3021 29.8309 22.4924C30.4475 20.6827 30.6414 18.76 30.3982 16.8667M27.9411 10.6641H21.3123M27.9411 10.6641L27.9386 4" stroke="#877458" stroke-width="3.2" stroke-linecap="round" stroke-linejoin="round"/>
</svg>
